<?xml version="1.0" encoding="utf-8"?>
<svg viewBox="0 0 500 500" xmlns="http://www.w3.org/2000/svg" xmlns:bx="https://boxy-svg.com">
  <defs>
    <bx:grid x="0.202" y="-1.474" width="624.037" height="219.297"/>
  </defs>
  <g fill-rule="evenodd" clip-rule="evenodd" transform="matrix(1.265599, 0, 0, 1.265599, -101.051323, 109.251839)" style="">
    <path d="M -59.086 -42.405 L 133.67 -42.405 L 133.67 150.351 L -59.086 150.351 L -59.086 -42.405 Z" fill="none"/>
    <path d="M 457.326 39.951 C 442.79 24.173 411.233 11.298 370.119 3.409 C 370.119 -1.159 373.026 -3.235 378.424 -6.558 C 380.918 -8.634 383.825 -10.712 387.148 -13.617 C 400.023 -26.072 384.656 -45.179 383.829 -46.01 L 375.522 -56.391 L 377.597 -43.101 C 378.847 -33.965 375.522 -30.644 365.552 -24 C 364.311 -22.754 363.48 -21.922 362.234 -21.091 C 362.652 -26.907 363.065 -33.965 360.99 -42.27 C 358.909 -50.992 354.76 -54.315 354.76 -54.315 L 353.928 -41.855 C 353.51 -41.855 352.68 -32.305 339.81 -20.675 C 341.054 -21.922 342.304 -23.169 343.13 -24.415 C 349.355 -33.55 347.694 -43.933 345.204 -55.972 L 344.792 -58.466 C 342.712 -70.924 346.036 -78.815 348.113 -80.062 C 350.604 -82.553 354.756 -87.12 354.756 -87.12 C 354.756 -87.12 352.265 -87.95 346.032 -87.12 C 338.139 -85.874 324.856 -81.307 325.274 -70.508 C 325.274 -65.528 326.937 -60.958 328.178 -56.806 C 329.84 -52.653 331.086 -48.502 329.84 -46.426 C 329.009 -44.764 326.107 -43.516 321.116 -42.686 C 302.431 -39.367 287.897 -30.23 280.841 -17.772 C 278.342 -13.617 276.69 -9.464 275.853 -4.481 C 229.342 -4.481 184.914 1.335 150.86 12.128 C 112.651 23.757 91.472 39.951 89.811 58.639 C 88.566 68.605 93.132 82.724 118.051 96.427 L 117.635 96.427 L 124.694 99.752 L 128.434 101.829 C 139.646 106.811 152.932 110.965 167.884 114.7 C 162.484 117.608 157.918 120.929 153.347 125.082 C 129.675 144.6 115.974 173.669 115.974 204.813 C 115.974 232.221 126.357 257.969 145.873 277.488 C 165.392 297.006 191.553 307.799 218.962 307.799 C 267.549 307.799 309.907 273.336 319.875 225.581 C 328.178 200.662 327.349 174.084 326.937 163.703 C 326.106 140.862 337.313 128.407 344.373 122.59 C 377.182 118.439 405.835 111.378 427.43 101.829 L 430.751 100.168 L 438.225 96.427 C 455.25 86.878 465.219 75.248 466.05 63.209 C 466.88 55.316 463.97 47.427 457.326 39.951 Z M 423.689 60.296 C 426.597 63.206 426.597 65.283 426.597 66.114 C 426.178 69.852 421.614 74.417 413.721 78.569 C 397.109 86.878 368.877 93.521 335.648 96.842 C 336.898 96.011 338.554 95.179 340.216 94.348 L 341.047 94.348 C 350.599 90.195 361.395 86.043 361.811 69.849 C 362.223 67.357 362.223 59.881 363.473 56.974 C 365.547 53.238 370.116 47.838 373.856 46.178 C 374.268 46.178 367.205 44.929 367.205 44.929 L 366.374 44.929 C 368.368 43.302 370.054 41.334 371.362 39.119 C 398.357 44.933 417.046 52.407 423.689 60.296 Z M 129.26 64.036 C 130.506 50.75 177.848 33.721 254.674 30.812 C 247.615 36.214 238.893 45.348 236.816 60.296 L 235.985 66.114 C 235.571 69.852 235.156 73.172 233.494 76.911 C 230.587 84.385 222.28 91.029 213.56 95.598 C 182.83 91.859 156.668 85.216 141.72 77.326 C 133.415 72.757 128.849 67.774 129.26 64.036 Z" style="fill: rgb(248, 144, 231);"/>
    <path d="M 366.378 2.993 C 367.209 -6.143 375.928 -8.219 384.24 -16.11 C 395.447 -26.491 381.334 -43.516 381.334 -43.516 C 382.994 -31.889 377.593 -27.737 367.627 -20.675 C 364.719 -18.598 362.226 -15.691 362.226 -11.955 C 361.815 -7.386 361.395 -2.82 360.565 1.747 C 362.645 2.162 364.719 2.578 366.378 2.993 L 366.378 2.993 Z M 336.487 -13.205 C 333.988 -11.128 331.499 -9.052 329.425 -7.389 L 324.443 -2.406 C 333.988 -1.575 343.542 -0.745 352.265 0.501 C 358.075 -9.883 360.987 -21.506 357.245 -41.855 C 357.245 -41.858 356.414 -28.153 336.487 -13.205 Z M 283.331 -4.485 C 294.124 -4.485 304.919 -4.069 315.304 -3.238 L 316.554 -4.485 C 323.197 -11.959 334.411 -18.19 339.81 -26.495 C 345.623 -35.215 343.542 -45.596 341.473 -58.056 C 337.733 -79.651 346.867 -83.388 346.867 -83.388 C 346.867 -83.388 328.598 -80.895 329.009 -70.512 C 329.428 -56.395 343.961 -43.105 321.954 -38.952 C 297.868 -34.8 282.917 -21.51 279.592 -4.485 L 283.331 -4.485 L 283.331 -4.485 Z" style="fill: rgb(11, 211, 211); stroke: rgb(248, 144, 231); stroke-width: 5px;"/>
    <path d="M 119.71 211.876 C 122.617 225.581 130.091 241.775 145.458 252.57 C 150.269 255.765 155.422 258.413 160.821 260.462 C 157.285 254.66 153.543 248.979 149.61 243.436 C 142.136 232.636 134.662 221.01 129.675 208.967 C 124.691 196.51 123.448 183.637 125.522 170.35 C 121.782 181.146 119.295 192.361 119.295 204.817 C 119.295 206.893 119.71 209.382 119.71 211.876 Z" style="fill: rgb(11, 211, 211);"/>
    <path d="M 136.32 206.474 C 140.889 217.688 148.363 228.9 155.422 239.283 C 161.239 247.588 166.634 255.477 170.37 263.37 C 174.941 264.613 179.921 265.443 184.491 265.443 C 179.506 258.383 175.356 250.499 171.62 241.356 C 157.499 205.644 159.575 161.626 177.017 136.291 C 186.153 123.001 197.367 114.285 211.484 106.392 C 223.526 99.748 231.002 98.088 238.891 93.521 C 247.196 88.12 251.764 79.815 246.365 61.131 C 244.705 55.732 244.289 51.165 244.705 47.842 C 242.626 51.576 241.38 56.147 240.549 61.131 C 239.718 66.114 239.303 71.929 237.231 78.157 C 229.754 97.676 193.623 108.469 189.058 109.719 C 175.356 113.873 164.558 120.102 155.837 127.576 C 131.337 149.583 126.769 182.388 136.32 206.474 Z" style="fill: rgb(11, 211, 211);"/>
    <path d="M 286.231 30.4 C 286.65 31.647 287.063 32.893 287.063 34.139 C 288.311 40.782 286.231 46.598 277.93 47.845 C 269.21 49.091 266.301 41.617 265.471 35.802 C 265.471 33.308 265.885 31.647 265.885 30.4 C 264.64 30.4 262.978 30.816 261.736 30.816 C 258.827 32.062 255.093 34.556 251.768 38.293 C 250.108 42.03 248.03 47.014 251.353 59.054 C 256.754 79.819 254.261 92.69 237.651 99.752 C 216.056 109.303 202.354 114.7 183.666 137.953 C 174.946 148.752 169.962 167.024 169.545 185.714 C 168.714 203.568 172.455 222.668 178.682 238.452 C 182.834 248.834 187.818 257.969 193.63 265.858 C 199.494 265.434 205.324 264.599 211.072 263.367 C 204.429 255.885 200.689 246.753 200.273 236.372 C 198.198 202.321 216.468 188.203 244.706 165.361 L 257.162 154.564 C 307.826 111.793 292.873 68.188 298.69 30.812 C 294.544 30.812 290.383 30.812 286.231 30.4 L 286.231 30.4 Z" style="fill: rgb(11, 211, 211);"/>
    <path d="M 306.587 28.261 C 304.919 35.735 304.508 43.625 304.089 51.518 C 302.014 83.908 302.846 120.866 261.732 157.411 L 249.273 167.377 C 221.865 189.387 206.086 203.092 207.332 232.992 C 207.747 242.956 211.899 251.68 218.962 258.323 C 226.436 256.244 233.913 252.923 241.387 248.771 C 277.099 228.422 299.529 198.114 308.242 159.074 C 313.642 134.571 313.642 114.642 313.23 98.444 C 313.23 90.554 314.473 74.356 314.473 74.356 C 315.723 64.392 317.382 50.271 329.009 32.001 C 329.428 31.169 329.428 30.754 329.84 29.923 C 322.777 29.507 314.888 28.673 306.587 28.261 L 306.587 28.261 Z" style="fill: rgb(11, 211, 211);"/>
    <path d="M 318.625 135.465 C 317.382 141.693 317.382 147.924 316.55 154.568 C 316.132 157.06 315.719 159.552 315.719 161.626 C 315.303 162.457 315.303 163.288 315.303 163.703 C 306.168 204.813 282.913 236.374 245.12 257.969 C 238.978 261.634 232.429 264.561 225.601 266.693 C 236.813 274.167 249.688 276.238 258.406 274.997 C 292.047 270.017 308.655 248.009 316.548 224.334 C 324.441 200.246 323.609 174.503 323.191 164.122 C 321.947 128.41 349.352 115.119 349.352 115.119 C 328.175 113.869 321.113 123.42 318.625 135.465 Z" style="fill: rgb(11, 211, 211);"/>
    <path d="M 296.203 267.107 C 282.497 278.737 267.546 281.229 260.901 282.058 C 247.611 284.131 231.832 281.225 217.712 270.014 L 217.299 269.594 C 211.068 271.256 205.256 272.087 199.439 272.502 C 213.146 287.448 231.002 295.341 255.085 297.003 C 271.695 290.77 285.816 279.978 296.611 266.691 L 296.203 267.107 L 296.203 267.107 Z M 170.789 291.601 C 170.789 284.127 168.712 276.657 165.389 269.183 C 157.084 267.103 149.194 263.37 141.305 258.799 C 136.738 255.893 133 251.74 129.675 248.007 C 138.396 266.693 152.931 281.639 170.789 291.601 Z M 239.31 301.988 C 226.02 298.667 214.394 294.095 204.429 286.212 C 199.443 282.474 194.461 277.907 190.308 272.917 C 184.906 272.917 179.509 272.506 174.111 271.256 C 177.021 279.149 178.679 287.039 177.432 294.926 C 190.308 300.744 204.01 304.065 218.958 304.065 C 226.016 304.065 233.079 303.234 239.722 301.984 C 239.726 301.988 239.726 301.988 239.31 301.988 L 239.31 301.988 Z M 355.171 57.809 C 352.671 65.283 345.202 64.452 342.709 60.3 C 339.389 53.657 341.809 48.673 345.545 44.937 C 349.285 41.617 353.921 39.54 359.735 37.047 C 353.091 35.802 346.028 34.971 338.558 34.139 L 338.139 34.139 C 337.309 34.971 336.898 35.802 336.064 36.633 C 324.022 54.488 322.773 68.189 321.528 78.157 L 321.111 81.476 C 320.28 86.878 320.28 93.521 320.697 101.41 L 320.697 104.731 C 320.28 107.638 320.28 110.13 320.28 113.04 C 320.28 111.793 320.697 111.378 320.697 112.209 C 324.018 101.41 330.251 94.767 338.973 91.029 C 348.518 87.293 357.66 83.555 358.073 69.852 C 358.49 64.036 358.904 58.224 360.154 55.316 C 362.645 49.916 366.797 48.673 366.797 48.673 C 362.226 48.257 357.245 50.335 355.171 57.809 L 355.171 57.809 Z" style="fill: rgb(11, 211, 211);"/>
    <path d="M 283.331 0.916 C 182.416 0.085 98.119 26.247 95.213 59.054 C 93.967 72.345 106.008 84.804 127.189 94.767 C 140.061 100.995 156.672 106.395 175.777 110.547 C 179.723 108.976 183.742 107.59 187.818 106.392 C 191.14 105.147 197.368 103.072 204.43 100.164 C 176.192 96.011 153.351 89.783 139.234 82.309 C 128.853 76.492 123.04 70.268 123.87 63.621 C 125.532 41.195 196.125 24.169 281.256 25 C 366.383 25.832 434.078 44.517 432.003 66.524 C 431.584 72.753 425.773 78.565 416.221 83.552 C 398.365 92.686 367.216 100.164 329.013 103.485 C 327.769 105.147 326.522 107.219 325.282 109.3 C 342.72 102.656 362.655 112.621 362.655 112.621 C 362.655 112.621 364.316 113.036 365.149 113.866 C 389.658 109.297 410.284 102.654 428.268 95.176 C 447.785 85.628 459.411 74.828 460.657 62.786 C 463.559 29.569 383.821 2.162 283.331 0.916 Z" style="fill: rgb(248, 144, 231); stroke: rgb(11, 211, 211); stroke-width: 4px;"/>
  </g>
</svg>