<?xml version="1.0" encoding="utf-8"?>
<svg width="2500" height="2500" viewBox="0 0 625 217" xmlns="http://www.w3.org/2000/svg" xmlns:bx="https://boxy-svg.com">
  <defs>
    <filter id="outline-filter-0" x="-500%" y="-500%" width="1000%" height="1000%" bx:preset="outline 1 1 rgba(255,0,0,1)">
      <feMorphology in="SourceAlpha" result="dilated" operator="dilate" radius="1"/>
      <feFlood flood-color="rgba(255,0,0,1)" result="flood"/>
      <feComposite in="flood" in2="dilated" operator="in" result="outline"/>
      <feMerge>
        <feMergeNode in="outline"/>
        <feMergeNode in="SourceGraphic"/>
      </feMerge>
    </filter>
    <bx:grid x="-51.842" y="-15.978" width="703.382" height="231.241"/>
  </defs>
  <g fill-rule="evenodd" clip-rule="evenodd" transform="matrix(1, 0, 0, 1, 28.959162, 9.449997)">
    <path d="M -59.086 -42.405 L 133.67 -42.405 L 133.67 150.351 L -59.086 150.351 L -59.086 -42.405 Z" fill="none"/>
    <path d="M 170.939 60.708 C 163.064 52.16 145.968 45.185 123.695 40.911 C 123.695 38.437 125.27 37.312 128.194 35.512 C 129.545 34.387 131.12 33.261 132.92 31.688 C 139.895 24.94 131.57 14.589 131.122 14.139 L 126.622 8.515 L 127.746 15.715 C 128.423 20.664 126.622 22.463 121.221 26.063 C 120.548 26.738 120.098 27.189 119.423 27.639 C 119.649 24.488 119.873 20.664 118.749 16.165 C 117.622 11.44 115.374 9.64 115.374 9.64 L 114.923 16.39 C 114.697 16.39 114.247 21.564 107.275 27.864 C 107.949 27.189 108.626 26.513 109.074 25.838 C 112.446 20.889 111.546 15.264 110.197 8.742 L 109.974 7.391 C 108.847 0.642 110.648 -3.633 111.773 -4.308 C 113.123 -5.658 115.372 -8.132 115.372 -8.132 C 115.372 -8.132 114.022 -8.582 110.646 -8.132 C 106.37 -7.457 99.174 -4.983 99.4 0.867 C 99.4 3.565 100.301 6.041 100.974 8.29 C 101.874 10.54 102.549 12.789 101.874 13.914 C 101.424 14.814 99.852 15.49 97.148 15.94 C 87.025 17.738 79.151 22.688 75.329 29.437 C 73.975 31.688 73.08 33.938 72.627 36.637 C 47.43 36.637 23.361 39.788 4.912 45.635 C -15.787 51.935 -27.261 60.708 -28.16 70.832 C -28.835 76.231 -26.361 83.88 -12.862 91.304 L -13.087 91.304 L -9.263 93.105 L -7.237 94.23 C -1.163 96.929 6.035 99.179 14.135 101.203 C 11.21 102.778 8.736 104.577 6.26 106.827 C -6.564 117.401 -13.987 133.149 -13.987 150.021 C -13.987 164.869 -8.362 178.818 2.211 189.392 C 12.785 199.966 26.958 205.813 41.806 205.813 C 68.128 205.813 91.075 187.143 96.475 161.272 C 100.974 147.772 100.524 133.374 100.301 127.75 C 99.851 115.376 105.922 108.628 109.747 105.477 C 127.521 103.228 143.044 99.403 154.743 94.23 L 156.542 93.33 L 160.591 91.304 C 169.814 86.13 175.215 79.83 175.665 73.308 C 176.114 69.032 174.538 64.758 170.939 60.708 Z M 152.716 71.73 C 154.291 73.306 154.291 74.431 154.291 74.881 C 154.064 76.907 151.592 79.38 147.316 81.629 C 138.316 86.13 123.022 89.729 105.02 91.528 C 105.697 91.078 106.595 90.627 107.495 90.177 L 107.945 90.177 C 113.12 87.927 118.969 85.678 119.194 76.905 C 119.417 75.555 119.417 71.505 120.094 69.93 C 121.218 67.906 123.693 64.981 125.719 64.081 C 125.942 64.081 122.116 63.405 122.116 63.405 L 121.666 63.405 C 122.746 62.523 123.66 61.457 124.368 60.257 C 138.993 63.407 149.117 67.456 152.716 71.73 Z M -6.789 73.756 C -6.114 66.558 19.533 57.333 61.153 55.757 C 57.329 58.683 52.604 63.632 51.479 71.73 L 51.029 74.881 C 50.804 76.907 50.579 78.705 49.679 80.731 C 48.104 84.78 43.604 88.379 38.88 90.854 C 22.232 88.829 8.059 85.23 -0.039 80.956 C -4.538 78.48 -7.012 75.781 -6.789 73.756 Z" fill="black"/>
    <path d="M 121.668 40.686 C 122.118 35.737 126.842 34.612 131.345 30.337 C 137.416 24.713 129.77 15.49 129.77 15.49 C 130.67 21.789 127.744 24.038 122.345 27.864 C 120.769 28.989 119.419 30.564 119.419 32.588 C 119.196 35.063 118.969 37.537 118.519 40.011 C 119.646 40.236 120.769 40.461 121.668 40.686 L 121.668 40.686 Z M 105.475 31.911 C 104.121 33.036 102.773 34.161 101.649 35.062 L 98.95 37.761 C 104.121 38.211 109.297 38.661 114.022 39.336 C 117.17 33.711 118.748 27.414 116.72 16.39 C 116.72 16.388 116.27 23.813 105.475 31.911 Z M 76.678 36.635 C 82.525 36.635 88.373 36.86 93.999 37.31 L 94.676 36.635 C 98.275 32.586 104.35 29.21 107.275 24.711 C 110.424 19.987 109.297 14.363 108.176 7.613 C 106.15 -4.086 111.098 -6.11 111.098 -6.11 C 111.098 -6.11 101.201 -4.76 101.424 0.865 C 101.651 8.513 109.524 15.713 97.602 17.963 C 84.553 20.212 76.453 27.412 74.652 36.635 L 76.678 36.635 L 76.678 36.635 Z" fill="#e2983a"/>
    <path d="M 322.103 90.06 L 338.272 22.255 L 311.152 22.255 L 294.461 90.06 L 322.103 90.06 Z M 381.562 38.943 L 383.126 66.591 L 369.043 66.591 L 383.648 90.06 L 408.16 90.06 L 404.512 22.255 L 363.306 22.255 L 329.927 90.06 L 356.007 90.06 L 381.562 38.943 Z M 318.455 152.123 L 312.717 175.067 L 338.272 175.067 L 354.963 107.788 L 329.405 107.788 L 323.149 133.871 L 303.85 133.871 L 310.106 107.788 L 284.548 107.788 L 267.86 175.067 L 293.418 175.067 L 299.152 152.123 L 318.455 152.123 Z M 379.475 159.947 L 381.562 150.552 L 412.854 150.552 L 417.024 135.954 L 385.21 135.954 L 387.299 126.043 L 419.117 126.043 L 424.33 107.788 L 366.439 107.788 L 349.751 175.067 L 407.12 175.067 L 411.29 159.947 L 379.475 159.947 Z M 544.287 90.06 L 560.979 22.255 L 533.331 22.255 L 516.643 90.06 L 544.287 90.06 Z M 589.663 74.408 C 593.314 79.628 596.962 89.535 580.275 97.362 C 560.454 106.229 580.275 128.658 553.67 128.658 L 542.201 128.658 L 531.244 175.07 L 504.131 175.07 L 515.084 128.658 L 496.828 128.658 L 502.563 107.791 L 550.028 107.791 C 578.191 107.791 558.371 87.976 572.454 85.365 C 582.361 83.8 588.623 81.708 589.663 74.408 Z M 247.524 57.196 L 242.826 22.255 L 209.447 22.255 L 192.756 90.06 L 217.796 90.06 L 226.66 54.591 L 227.178 54.591 L 231.876 90.06 L 246.481 90.06 L 266.82 54.591 L 267.341 54.591 L 258.996 90.06 L 282.464 90.06 L 299.152 22.255 L 266.82 22.255 L 247.524 57.196 Z M 470.224 57.196 L 465.533 22.255 L 432.153 22.255 L 415.462 90.06 L 440.499 90.06 L 449.363 54.591 L 449.881 54.591 L 454.582 90.06 L 469.181 90.06 L 489.523 54.591 L 490.048 54.591 L 481.705 90.06 L 505.174 90.06 C 506.592 87.932 526.739 14.937 521.862 22.255 L 489.523 22.255 L 470.224 57.196 Z M 466.051 123.957 L 467.622 151.595 L 453.539 151.595 L 467.622 175.067 L 492.652 175.067 L 489.004 107.788 L 447.798 107.788 C 447.798 107.788 413.901 175.067 414.419 175.067 L 440.499 175.067 L 466.051 123.957 Z" style="paint-order: fill; fill-rule: evenodd; stroke-width: 12px; filter: url(#outline-filter-0); fill: rgb(255, 255, 255);" transform="matrix(1, 0.000019, -0.000019, 1, 0.00187, -0.007508)" bx:origin="0.506 0.5"/>
    <path d="M -11.963 153.847 C -10.388 161.272 -6.339 170.045 1.986 175.893 C 4.592 177.624 7.384 179.059 10.309 180.169 C 8.393 177.025 6.366 173.948 4.235 170.945 C 0.186 165.094 -3.863 158.796 -6.564 152.271 C -9.264 145.523 -9.938 138.549 -8.814 131.351 C -10.84 137.2 -12.188 143.275 -12.188 150.023 C -12.188 151.148 -11.963 152.496 -11.963 153.847 Z" fill="#aa3e3e"/>
    <path d="M -2.965 150.921 C -0.489 156.996 3.56 163.07 7.384 168.695 C 10.535 173.194 13.458 177.468 15.482 181.744 C 17.958 182.417 20.656 182.867 23.132 182.867 C 20.431 179.042 18.183 174.771 16.159 169.818 C 8.509 150.471 9.634 126.625 19.083 112.9 C 24.032 105.7 30.107 100.978 37.755 96.702 C 44.279 93.103 48.329 92.203 52.603 89.729 C 57.102 86.803 59.577 82.304 56.652 72.182 C 55.752 69.257 55.527 66.783 55.752 64.983 C 54.626 67.006 53.951 69.482 53.501 72.182 C 53.051 74.881 52.826 78.032 51.703 81.406 C 47.653 91.98 28.079 97.827 25.606 98.504 C 18.183 100.755 12.333 104.129 7.609 108.178 C -5.664 120.1 -8.139 137.872 -2.965 150.921 Z" fill="#aa3e3e"/>
    <path d="M 78.249 55.534 C 78.476 56.209 78.7 56.884 78.7 57.559 C 79.376 61.158 78.249 64.309 73.752 64.984 C 69.028 65.659 67.452 61.61 67.002 58.46 C 67.002 57.109 67.227 56.209 67.227 55.534 C 66.552 55.534 65.652 55.759 64.979 55.759 C 63.403 56.434 61.38 57.785 59.579 59.81 C 58.679 61.834 57.554 64.534 59.354 71.057 C 62.28 82.306 60.929 89.279 51.931 93.105 C 40.232 98.279 32.809 101.203 22.685 113.8 C 17.961 119.65 15.261 129.549 15.035 139.674 C 14.585 149.347 16.611 159.694 19.985 168.245 C 22.234 173.869 24.934 178.818 28.083 183.092 C 31.26 182.862 34.418 182.41 37.532 181.742 C 33.933 177.689 31.907 172.742 31.682 167.118 C 30.557 148.671 40.455 141.022 55.753 128.648 L 62.501 122.799 C 89.948 99.628 81.847 76.005 84.999 55.757 C 82.752 55.757 80.498 55.757 78.249 55.534 L 78.249 55.534 Z" fill="#aa3e3e"/>
    <path d="M 89.277 55.984 C 88.373 60.033 88.15 64.307 87.923 68.583 C 86.799 86.13 87.25 106.152 64.977 125.95 L 58.227 131.349 C 43.379 143.273 34.831 150.698 35.506 166.896 C 35.731 172.294 37.98 177.02 41.806 180.619 C 45.855 179.492 49.906 177.693 53.955 175.444 C 73.302 164.42 85.453 148.001 90.173 126.851 C 93.099 113.577 93.099 102.78 92.876 94.005 C 92.876 89.731 93.549 80.956 93.549 80.956 C 94.226 75.558 95.125 67.908 101.424 58.01 C 101.651 57.559 101.651 57.334 101.874 56.884 C 98.047 56.659 93.774 56.207 89.277 55.984 L 89.277 55.984 Z" fill="#aa3e3e"/>
    <path d="M 95.798 112.452 C 95.125 115.826 95.125 119.202 94.674 122.801 C 94.448 124.151 94.224 125.501 94.224 126.625 C 93.998 127.075 93.998 127.525 93.998 127.75 C 89.05 150.021 76.451 167.119 55.977 178.818 C 52.65 180.803 49.102 182.389 45.403 183.544 C 51.477 187.593 58.452 188.715 63.175 188.043 C 81.4 185.345 90.397 173.422 94.673 160.596 C 98.949 147.547 98.498 133.601 98.272 127.977 C 97.598 108.63 112.444 101.43 112.444 101.43 C 100.972 100.753 97.146 105.927 95.798 112.452 Z" fill="#aa3e3e"/>
    <path d="M 83.651 183.768 C 76.226 190.069 68.126 191.419 64.527 191.868 C 57.327 192.991 48.779 191.417 41.129 185.343 L 40.905 185.116 C 37.53 186.016 34.381 186.466 31.23 186.691 C 38.655 194.788 48.329 199.064 61.376 199.964 C 70.374 196.588 78.024 190.741 83.872 183.543 L 83.651 183.768 L 83.651 183.768 Z M 15.709 197.038 C 15.709 192.989 14.584 188.942 12.783 184.893 C 8.284 183.766 4.01 181.744 -0.264 179.268 C -2.738 177.693 -4.763 175.443 -6.564 173.421 C -1.84 183.544 6.034 191.641 15.709 197.038 Z M 52.83 202.665 C 45.63 200.866 39.332 198.389 33.933 194.118 C 31.232 192.093 28.533 189.619 26.283 186.916 C 23.357 186.916 20.433 186.693 17.509 186.016 C 19.085 190.292 19.983 194.566 19.308 198.839 C 26.283 201.991 33.706 203.79 41.804 203.79 C 45.628 203.79 49.454 203.34 53.053 202.663 C 53.055 202.665 53.055 202.665 52.83 202.665 L 52.83 202.665 Z M 115.597 70.382 C 114.243 74.431 110.196 73.981 108.845 71.732 C 107.047 68.133 108.358 65.433 110.382 63.409 C 112.408 61.61 114.92 60.485 118.069 59.135 C 114.47 58.46 110.644 58.01 106.597 57.559 L 106.37 57.559 C 105.92 58.01 105.697 58.46 105.246 58.91 C 98.722 68.583 98.045 76.006 97.371 81.406 L 97.145 83.204 C 96.695 86.13 96.695 89.729 96.921 94.003 L 96.921 95.802 C 96.695 97.377 96.695 98.727 96.695 100.303 C 96.695 99.628 96.921 99.403 96.921 99.853 C 98.72 94.003 102.096 90.404 106.822 88.379 C 111.993 86.355 116.945 84.33 117.169 76.907 C 117.395 73.756 117.619 70.607 118.296 69.032 C 119.646 66.106 121.895 65.433 121.895 65.433 C 119.419 65.208 116.72 66.333 115.597 70.382 L 115.597 70.382 Z" fill="#aa3e3e"/>
    <path d="M 76.678 39.561 C 22.008 39.111 -23.66 53.284 -25.234 71.057 C -25.909 78.257 -19.386 85.007 -7.911 90.404 C -0.938 93.778 8.061 96.704 18.411 98.953 C 20.549 98.102 22.726 97.351 24.934 96.702 C 26.734 96.027 30.108 94.903 33.934 93.328 C 18.636 91.078 6.262 87.704 -1.386 83.655 C -7.01 80.504 -10.159 77.132 -9.709 73.531 C -8.809 61.382 29.435 52.158 75.554 52.608 C 121.671 53.059 158.344 63.182 157.22 75.104 C 156.993 78.478 153.845 81.627 148.67 84.328 C 138.997 89.277 122.122 93.328 101.426 95.127 C 100.752 96.027 100.076 97.15 99.404 98.277 C 108.851 94.678 119.651 100.076 119.651 100.076 C 119.651 100.076 120.551 100.301 121.002 100.751 C 134.724 98.276 146.423 94.677 155.197 90.626 C 165.77 85.453 172.068 79.602 172.743 73.079 C 174.315 55.084 131.118 40.236 76.678 39.561 L 76.678 39.561 Z" fill="#fff"/>
  </g>
</svg>